<svg width="203" height="64" viewBox="0 0 203 64" fill="none" xmlns="http://www.w3.org/2000/svg">
<path d="M12.5155 33.0828C12.5155 33.0243 12.5155 33.0243 12.5155 32.9659C12.5155 32.498 12.1646 32.1471 11.6967 32.1471C11.6383 32.1471 11.6383 32.1471 11.5798 32.1471H3.97689C1.813 32.1471 0 30.3926 0 28.1702V17.2922C0 15.1283 1.75451 13.3153 3.97689 13.3153H11.5798H11.6967C12.1646 13.3153 12.5155 12.9644 12.5155 12.4966V12.4381V1.67706C12.5155 1.20919 12.8664 0.858288 13.3343 0.858288H17.9545C18.4224 0.858288 18.7733 1.20919 18.7733 1.67706V15.6547C18.7733 17.8186 17.0188 19.6316 14.7964 19.6316H7.1935H7.07653C6.60866 19.6316 6.25776 19.9825 6.25776 20.4503V20.5673V24.9536C6.25776 25.0121 6.25776 25.0121 6.25776 25.0706C6.25776 25.5384 6.60866 25.8893 7.07653 25.8893C7.13502 25.8893 7.13502 25.8893 7.1935 25.8893H14.8549C17.0188 25.8893 18.8318 27.6438 18.8318 29.8662V50.0431C18.8318 50.1016 18.8318 50.1016 18.8318 50.1601C18.8318 50.6279 19.1827 50.9789 19.6505 50.9789C19.709 50.9789 19.709 50.9789 19.7675 50.9789H36.6693C36.7278 50.9789 36.7278 50.9789 36.7863 50.9789C37.2541 50.9789 37.605 50.6279 37.605 50.1601C37.605 50.1016 37.605 50.1016 37.605 50.0431V39.2821C37.605 38.8142 37.9559 38.4633 38.4238 38.4633H43.044C43.5119 38.4633 43.8628 38.8142 43.8628 39.2821V53.2597C43.8628 55.4236 42.1083 57.2366 39.8859 57.2366H16.4924C14.3285 57.2366 12.5155 55.4821 12.5155 53.2597V33.0828ZM50.1206 33.0828C50.1206 33.0243 50.1206 33.0243 50.1206 32.9659C50.1206 32.498 49.7697 32.1471 49.3018 32.1471C49.2433 32.1471 49.2433 32.1471 49.1848 32.1471H41.5819C39.418 32.1471 37.605 30.3926 37.605 28.1702V7.9933C37.605 7.93482 37.605 7.93482 37.605 7.87634C37.605 7.40847 37.2541 7.05756 36.7863 7.05756C36.7278 7.05756 36.7278 7.05756 36.6693 7.05756H32.283C32.2245 7.05756 32.2245 7.05756 32.1661 7.05756C31.6982 7.05756 31.3473 7.40847 31.3473 7.87634C31.3473 7.93482 31.3473 7.93482 31.3473 7.9933V43.7854C31.3473 44.2532 30.9964 44.6041 30.5285 44.6041H25.9083C25.4404 44.6041 25.0895 44.2532 25.0895 43.7854V4.7767C25.0895 2.6128 26.844 0.799805 29.0664 0.799805H39.9444C42.1083 0.799805 43.9213 2.55432 43.9213 4.7767V24.9536C43.9213 25.0121 43.9213 25.0121 43.9213 25.0706C43.9213 25.5384 44.2722 25.8893 44.7401 25.8893C44.7985 25.8893 44.7985 25.8893 44.857 25.8893H52.4599C54.6238 25.8893 56.4368 27.6438 56.4368 29.8662V56.3594C56.4368 56.8272 56.0859 57.1781 55.618 57.1781H50.9978C50.5299 57.1781 50.1791 56.8272 50.1791 56.3594V33.0828H50.1206Z" fill="#43B02A"/>
<path d="M89.483 58.641C89.483 61.0973 87.3191 63.3782 83.5761 63.3782H82.4649C78.7804 63.3782 76.6165 61.5067 76.3241 59.5182L76.2656 59.1673L80.2425 58.8164L80.418 59.0504C80.6519 59.5182 81.2368 59.8106 82.231 59.8106H83.1082C84.2194 59.8106 85.1552 59.2258 85.1552 57.9977V56.5356C84.3364 57.0619 83.4006 57.2958 82.4649 57.2958H80.7689C77.8447 57.2958 76.2656 54.8395 76.2656 52.2662V45.4236C76.2656 42.7919 77.8447 40.394 80.7689 40.394H82.231C83.6346 40.394 84.9797 40.9789 86.0909 41.9731L86.5588 40.5695H89.483V58.641ZM85.1552 52.6756V45.0727C84.6288 44.5464 83.927 44.1955 83.1667 44.1955H82.231C81.3537 44.1955 80.5349 44.7803 80.5349 46.0085V51.7399C80.5349 52.968 81.2952 53.5529 82.1725 53.5529H83.0497C83.81 53.5529 84.6288 53.202 85.1552 52.6756Z" fill="#53565A"/>
<path d="M100.827 44.3705H98.7798C97.7271 44.3705 96.6159 44.7799 95.9141 45.4817V57.12H91.6448V40.6275H94.569L95.0368 42.2066C96.3235 41.0954 97.8441 40.4521 99.4231 40.4521H100.827V44.3705Z" fill="#53565A"/>
<path d="M119.55 6.88211H116.977C111.714 6.88211 108.731 10.2157 108.731 13.8417V23.9594C108.731 27.5854 111.772 30.9189 116.977 30.9189H119.55C124.58 30.9189 127.446 27.5854 127.446 23.9594V13.8417C127.446 10.2157 124.58 6.88211 119.55 6.88211ZM121.363 22.9651C121.363 24.7197 120.194 25.5384 118.79 25.5384H117.328C115.924 25.5384 114.755 24.7197 114.755 22.9651V14.7774C114.755 13.0814 115.924 12.2041 117.328 12.2041H118.79C120.194 12.2041 121.363 13.0814 121.363 14.7774V22.9651ZM99.7245 6.88211H98.0869C96.4494 6.88211 94.8703 7.40847 93.4667 8.22724V0.799805H87.3844V30.6265H93.4667V13.5493C94.2855 12.7305 95.3967 12.2041 96.5664 12.2041H97.4436C98.7887 12.2041 99.8414 12.9644 99.8414 14.7189V30.6265H105.924V13.7832C105.924 10.1572 103.76 6.88211 99.7245 6.88211ZM82.3548 0.799805H78.2025L76.3895 7.11605H73.6992V12.4966H76.2725V30.685H82.3548V12.4966H85.5714V7.11605H82.3548V0.799805ZM190.901 13.9586V13.4323C190.901 12.6135 191.778 12.2626 192.597 12.2626H193.883C194.878 12.2626 195.813 12.9059 195.813 14.1926V14.602H201.486V13.9586C201.486 10.2742 198.913 6.9406 194.234 6.9406H191.836C187.216 6.9406 184.584 9.86479 184.584 13.0814V14.3096C184.584 21.2106 196.223 21.3861 196.223 23.667V24.1348C196.223 25.0706 195.228 25.5384 193.942 25.5384H192.48C191.135 25.5384 190.023 24.8951 190.023 23.6085V23.1406H184V24.0763C184 27.5854 186.748 30.9189 191.778 30.9189H194.351C199.147 30.9189 202.071 27.8193 202.071 24.5442V23.4915C202.13 16.0641 190.901 16.3565 190.901 13.9586ZM174.35 6.88211H172.303C167.273 6.88211 164.408 10.3911 164.408 14.2511V14.8359H170.49V14.5435C170.49 13.0229 171.484 12.2626 172.654 12.2626H173.823C175.052 12.2626 176.104 13.1399 176.104 14.8359V16.2395L171.484 16.7659C167.449 17.2337 163.413 19.1637 163.413 23.1406V24.9536C163.413 28.0532 165.753 30.9774 170.022 30.9774H171.952C173.765 30.9774 175.695 30.1587 177.332 28.755L177.976 30.685H182.128V14.368C182.187 10.3911 179.321 6.88211 174.35 6.88211ZM176.163 24.1933C175.227 25.0706 173.765 25.5384 172.361 25.5384H171.25C170.373 25.5384 169.554 25.0121 169.554 24.0179V23.3161C169.554 22.2049 170.899 21.3861 172.42 21.2106L176.163 20.6843V24.1933ZM155.05 6.88211H153.413C151.19 6.88211 149.085 7.75937 147.389 9.27995C146.395 7.81786 144.757 6.88211 142.593 6.88211H140.956C138.792 6.88211 136.803 7.75937 135.049 9.16298L134.405 7.11605H130.253V30.6265H136.277V13.5493C137.096 12.7305 138.207 12.2041 139.376 12.2041H140.254C141.599 12.2041 142.652 12.9644 142.652 14.7189V30.6265H148.734V13.4908C149.494 12.7305 150.664 12.2041 151.833 12.2041H152.711C153.997 12.2041 155.109 12.9644 155.109 14.7189V30.6265H161.191V13.7832C161.249 10.1572 159.085 6.88211 155.05 6.88211Z" fill="#53565A"/>
<path d="M107.082 40.6284V51.8573C107.082 53.0855 107.842 53.6118 108.778 53.6118H109.421C110.24 53.6118 111.059 53.2609 111.585 52.7346V40.6284H115.854V57.1793H112.93L112.462 55.7757C111.293 56.7699 109.831 57.3548 108.369 57.3548H107.199C104.333 57.3548 102.871 55.0739 102.871 52.4421V40.6284H107.082Z" fill="#53565A"/>
<path d="M120.948 40.6276L121.357 41.9727C122.468 41.037 123.696 40.4521 125.1 40.4521H126.738C129.662 40.4521 131.241 42.85 131.241 45.4818V52.3828C131.241 55.0146 129.662 57.4124 126.738 57.4124H125.158C124.164 57.4124 123.17 57.12 122.293 56.5937V63.4363H118.023V40.6276H120.948ZM122.293 45.0724V52.6753C122.819 53.2016 123.579 53.5525 124.34 53.5525H125.217C126.153 53.5525 126.913 52.9677 126.913 51.7395V46.0081C126.913 44.7799 126.153 44.1951 125.217 44.1951H124.34C123.638 44.1951 122.819 44.546 122.293 45.0724Z" fill="#53565A"/>
<path d="M136.092 40.6276L136.502 41.9727C137.613 41.037 138.841 40.4521 140.245 40.4521H141.882C144.806 40.4521 146.385 42.85 146.385 45.4818V52.3828C146.385 55.0146 144.806 57.4124 141.882 57.4124H140.362C139.367 57.4124 138.373 57.12 137.496 56.5937V63.4363H133.227V40.6276H136.092ZM137.437 45.0724V52.6753C137.964 53.2016 138.724 53.5525 139.484 53.5525H140.362C141.297 53.5525 142.058 52.9677 142.058 51.7395V46.0081C142.058 44.7799 141.297 44.1951 140.362 44.1951H139.484C138.783 44.1951 137.964 44.546 137.437 45.0724Z" fill="#53565A"/>
<path d="M152.586 50.3359V51.798C152.586 53.0262 153.404 53.611 154.399 53.611H155.393C156.387 53.611 157.206 53.0846 157.206 51.915V51.798H161.475V52.6168C161.475 55.0731 159.487 57.354 155.919 57.354H154.106C150.422 57.354 148.316 55.0146 148.316 52.4413V45.3648C148.316 42.7915 150.422 40.4521 154.106 40.4521H155.919C159.428 40.4521 161.475 42.7915 161.475 45.3648V50.3359H152.586ZM152.586 47.0608H157.206V46.0081C157.206 44.8384 156.387 44.1951 155.393 44.1951H154.399C153.404 44.1951 152.586 44.7799 152.586 46.0081V47.0608Z" fill="#53565A"/>
</svg>
